# WaveFront *.obj file (generated by Autodesk ATF)

mtllib Propeller.mtl

g Body1

v -1.000000 -0.000000 0.500000
v -0.965926 -0.258819 0.500000
v -0.866025 -0.500000 0.500000
v -0.707107 -0.707107 0.500000
v -0.500000 -0.866025 0.500000
v -0.258819 -0.965926 0.500000
v 0.000000 -1.000000 0.500000
v 0.258819 -0.965926 0.500000
v 0.500000 -0.866025 0.500000
v 0.707107 -0.707107 0.500000
v 0.866025 -0.500000 0.500000
v 0.965926 -0.258819 0.500000
v 1.000000 0.000000 0.500000
v 0.965926 0.258819 0.500000
v 0.866025 0.500000 0.500000
v 0.707107 0.707107 0.500000
v 0.500000 0.866025 0.500000
v 0.258819 0.965926 0.500000
v 0.000000 1.000000 0.500000
v -0.258819 0.965926 0.500000
v -0.500000 0.866025 0.500000
v -0.707107 0.707107 0.500000
v -0.866025 0.500000 0.500000
v -0.965926 0.258819 0.500000
v -1.000000 -0.000000 0.000000
v -0.965926 0.258819 0.000000
v -0.866025 0.500000 0.000000
v -0.707107 0.707107 0.000000
v -0.500000 0.866025 0.000000
v -0.258819 0.965926 0.000000
v 0.000000 1.000000 0.000000
v 0.258819 0.965926 0.000000
v 0.500000 0.866025 0.000000
v 0.707107 0.707107 0.000000
v 0.866025 0.500000 0.000000
v 0.965926 0.258819 0.000000
v 1.000000 0.000000 0.000000
v 0.965926 -0.258819 0.000000
v 0.866025 -0.500000 0.000000
v 0.707107 -0.707107 0.000000
v 0.500000 -0.866025 0.000000
v 0.258819 -0.965926 0.000000
v 0.000000 -1.000000 0.000000
v -0.258819 -0.965926 0.000000
v -0.500000 -0.866025 0.000000
v -0.707107 -0.707107 0.000000
v -0.866025 -0.500000 0.000000
v -0.965926 -0.258819 0.000000
v 19.890438 -0.090569 0.000000
v 9.945219 0.954715 0.000000
v 0.000000 2.000000 0.000000
v 0.000000 2.000000 0.500000
v 9.945219 0.954715 0.500000
v 19.890438 -0.090569 0.500000
v 19.785909 -1.085091 0.000000
v 19.785909 -1.085091 0.500000
v 0.800626 -1.832757 0.000000
v 10.293268 -1.458924 0.000000
v 10.293268 -1.458924 0.500000
v 0.800626 -1.832757 0.500000
v -0.000000 -2.000000 0.000000
v 0.273710 -1.981182 0.000000
v 0.542270 -1.925083 0.000000
v 0.542270 -1.925083 0.500000
v 0.273710 -1.981182 0.500000
v -0.000000 -2.000000 0.500000
v -19.890438 0.090569 0.000000
v -9.945219 -0.954715 0.000000
v -9.945219 -0.954715 0.500000
v -19.890438 0.090569 0.500000
v -19.785909 1.085091 0.000000
v -19.785909 1.085091 0.500000
v -0.800626 1.832757 0.000000
v -10.293268 1.458924 0.000000
v -10.293268 1.458924 0.500000
v -0.800626 1.832757 0.500000
v -0.273710 1.981182 0.000000
v -0.542270 1.925083 0.000000
v -0.542270 1.925083 0.500000
v -0.273710 1.981182 0.500000
v 9.945219 -1.042770 0.500000
v 9.945219 -1.042770 0.000000
vt 0.500000 -2.879793 0.000000
vt 0.000000 -2.879793 0.000000
vt 0.500000 -3.141593 0.000000
vt 0.000000 -3.141593 0.000000
vt 0.500000 3.141593 0.000000
vt 0.000000 3.141593 0.000000
vt 0.500000 2.879793 0.000000
vt 0.000000 2.879793 0.000000
vt 0.500000 2.617994 0.000000
vt 0.000000 2.617994 0.000000
vt 0.500000 2.356194 0.000000
vt 0.000000 2.356194 0.000000
vt 0.500000 2.094395 0.000000
vt 0.000000 2.094395 0.000000
vt 0.500000 1.832596 0.000000
vt 0.000000 1.832596 0.000000
vt 0.500000 1.570796 0.000000
vt 0.000000 1.570796 0.000000
vt 0.500000 1.308997 0.000000
vt 0.000000 1.308997 0.000000
vt 0.500000 1.047198 0.000000
vt 0.000000 1.047198 0.000000
vt 0.500000 0.785398 0.000000
vt 0.000000 0.785398 0.000000
vt 0.500000 0.523599 0.000000
vt 0.000000 0.523599 0.000000
vt 0.500000 0.261799 0.000000
vt 0.000000 0.261799 0.000000
vt 0.500000 0.000000 0.000000
vt 0.000000 0.000000 0.000000
vt 0.500000 -0.261799 0.000000
vt 0.000000 -0.261799 0.000000
vt 0.500000 -0.523599 0.000000
vt 0.000000 -0.523599 0.000000
vt 0.500000 -0.785398 0.000000
vt 0.000000 -0.785398 0.000000
vt 0.500000 -1.047198 0.000000
vt 0.000000 -1.047198 0.000000
vt 0.500000 -1.308997 0.000000
vt 0.000000 -1.308997 0.000000
vt 0.500000 -1.570796 0.000000
vt 0.000000 -1.570796 0.000000
vt 0.500000 -1.832596 0.000000
vt 0.000000 -1.832596 0.000000
vt 0.500000 -2.094395 0.000000
vt 0.000000 -2.094395 0.000000
vt 0.500000 -2.356194 0.000000
vt 0.000000 -2.356194 0.000000
vt 0.500000 -2.617994 0.000000
vt 0.000000 -2.617994 0.000000
vt -0.000000 0.000000 0.000000
vt 10.000000 0.000000 0.000000
vt -0.000000 0.500000 0.000000
vt 10.000000 0.500000 0.000000
vt 20.000000 0.000000 0.000000
vt 20.000000 0.500000 0.000000
vt 0.000000 0.000000 0.000000
vt 1.000000 0.000000 0.000000
vt 0.000000 0.500000 0.000000
vt 1.000000 0.500000 0.000000
vt 0.000000 0.000000 0.000000
vt 9.500000 0.000000 0.000000
vt 0.000000 0.500000 0.000000
vt 9.500000 0.500000 0.000000
vt 19.000000 0.000000 0.000000
vt 19.000000 0.500000 0.000000
vt -0.500000 -3.141593 0.000000
vt -0.000000 -3.141593 0.000000
vt -0.500000 -2.867020 0.000000
vt -0.000000 -2.867020 0.000000
vt -0.000000 -2.592448 0.000000
vt -0.000000 -2.317876 0.000000
vt -0.500000 -2.317876 0.000000
vt -0.500000 -2.592448 0.000000
vt -0.000000 0.000000 0.000000
vt 10.000000 0.000000 0.000000
vt -0.000000 0.500000 0.000000
vt 10.000000 0.500000 0.000000
vt 20.000000 0.000000 0.000000
vt 20.000000 0.500000 0.000000
vt -0.000000 0.000000 0.000000
vt 1.000000 0.000000 0.000000
vt -0.000000 0.500000 0.000000
vt 1.000000 0.500000 0.000000
vt -0.000000 0.000000 0.000000
vt 9.500000 0.000000 0.000000
vt -0.000000 0.500000 0.000000
vt 9.500000 0.500000 0.000000
vt 19.000000 0.000000 0.000000
vt 19.000000 0.500000 0.000000
vt -0.500000 3.141593 0.000000
vt -0.000000 3.141593 0.000000
vt -0.500000 3.416165 0.000000
vt -0.000000 3.416165 0.000000
vt -0.000000 3.690737 0.000000
vt -0.000000 3.965309 0.000000
vt -0.500000 3.965309 0.000000
vt -0.500000 3.690737 0.000000
vt -0.965926 -0.258819 0.000000
vt -1.000000 -0.000000 0.000000
vt -9.945219 -0.954715 0.000000
vt -0.965926 0.258819 0.000000
vt -10.293268 1.458924 0.000000
vt -0.866025 0.500000 0.000000
vt -0.707107 0.707107 0.000000
vt -0.800626 1.832757 0.000000
vt -0.500000 0.866025 0.000000
vt -0.258819 0.965926 0.000000
vt 0.000000 1.000000 0.000000
vt -0.542270 1.925083 0.000000
vt -0.273710 1.981182 0.000000
vt 0.000000 2.000000 0.000000
vt 0.258819 0.965926 0.000000
vt 0.500000 0.866025 0.000000
vt 9.945219 0.954715 0.000000
vt 0.707107 0.707107 0.000000
vt 0.866025 0.500000 0.000000
vt 0.965926 0.258819 0.000000
vt 1.000000 0.000000 0.000000
vt 9.945219 -1.042770 0.000000
vt 0.965926 -0.258819 0.000000
vt 0.866025 -0.500000 0.000000
vt 0.707107 -0.707107 0.000000
vt 0.800626 -1.832757 0.000000
vt 10.293268 -1.458924 0.000000
vt 0.500000 -0.866025 0.000000
vt 0.258819 -0.965926 0.000000
vt 0.000000 -1.000000 0.000000
vt -0.258819 -0.965926 0.000000
vt -0.000000 -2.000000 0.000000
vt 0.273710 -1.981182 0.000000
vt 0.542270 -1.925083 0.000000
vt -0.500000 -0.866025 0.000000
vt -0.707107 -0.707107 0.000000
vt -0.866025 -0.500000 0.000000
vt -19.785909 1.085091 0.000000
vt -19.890438 0.090569 0.000000
vt 19.785909 -1.085091 0.000000
vt 19.890438 -0.090569 0.000000
vt 0.965926 0.258819 0.000000
vt 1.000000 -0.000000 0.000000
vt 9.945219 -0.954715 0.000000
vt 0.965926 -0.258819 0.000000
vt 0.866025 -0.500000 0.000000
vt 0.707107 -0.707107 0.000000
vt 0.500000 -0.866025 0.000000
vt 0.000000 -2.000000 0.000000
vt 0.258819 -0.965926 0.000000
vt -0.000000 -1.000000 0.000000
vt -0.258819 -0.965926 0.000000
vt -0.800626 -1.832757 0.000000
vt -0.542270 -1.925083 0.000000
vt -0.273710 -1.981182 0.000000
vt -0.500000 -0.866025 0.000000
vt -0.707107 -0.707107 0.000000
vt -9.945219 -1.042770 0.000000
vt -0.866025 -0.500000 0.000000
vt -0.965926 -0.258819 0.000000
vt -1.000000 0.000000 0.000000
vt -9.945219 0.954715 0.000000
vt -19.890438 -0.090569 0.000000
vt -0.965926 0.258819 0.000000
vt -0.866025 0.500000 0.000000
vt -0.707107 0.707107 0.000000
vt -0.500000 0.866025 0.000000
vt -0.000000 2.000000 0.000000
vt -0.258819 0.965926 0.000000
vt -0.000000 1.000000 0.000000
vt 0.258819 0.965926 0.000000
vt 0.800626 1.832757 0.000000
vt 0.542270 1.925083 0.000000
vt 0.273710 1.981182 0.000000
vt 0.500000 0.866025 0.000000
vt 0.707107 0.707107 0.000000
vt 10.293268 1.458924 0.000000
vt 0.866025 0.500000 0.000000
vt -19.785909 -1.085091 0.000000
vt -10.293268 -1.458924 0.000000
vt 19.890438 0.090569 0.000000
vt 19.785909 1.085091 0.000000
vn 0.965926 0.258819 -0.000000
vn 0.965926 0.258819 -0.000000
vn 1.000000 0.000000 -0.000000
vn 1.000000 0.000000 -0.000000
vn 0.965926 -0.258819 0.000000
vn 0.965926 -0.258819 0.000000
vn 0.866025 -0.500000 0.000000
vn 0.866025 -0.500000 0.000000
vn 0.707107 -0.707107 0.000000
vn 0.707107 -0.707107 0.000000
vn 0.500000 -0.866025 0.000000
vn 0.500000 -0.866025 0.000000
vn 0.258819 -0.965926 0.000000
vn 0.258819 -0.965926 0.000000
vn -0.000000 -1.000000 0.000000
vn -0.000000 -1.000000 0.000000
vn -0.258819 -0.965926 0.000000
vn -0.258819 -0.965926 0.000000
vn -0.500000 -0.866025 0.000000
vn -0.500000 -0.866025 0.000000
vn -0.707107 -0.707107 0.000000
vn -0.707107 -0.707107 0.000000
vn -0.866025 -0.500000 0.000000
vn -0.866025 -0.500000 0.000000
vn -0.965926 -0.258819 0.000000
vn -0.965926 -0.258819 0.000000
vn -1.000000 0.000000 0.000000
vn -1.000000 0.000000 0.000000
vn -0.965926 0.258819 0.000000
vn -0.965926 0.258819 0.000000
vn -0.866025 0.500000 0.000000
vn -0.866025 0.500000 0.000000
vn -0.707107 0.707107 0.000000
vn -0.707107 0.707107 0.000000
vn -0.500000 0.866025 0.000000
vn -0.500000 0.866025 0.000000
vn -0.258819 0.965926 0.000000
vn -0.258819 0.965926 0.000000
vn -0.000000 1.000000 0.000000
vn -0.000000 1.000000 0.000000
vn 0.258819 0.965926 -0.000000
vn 0.258819 0.965926 -0.000000
vn 0.500000 0.866025 -0.000000
vn 0.500000 0.866025 -0.000000
vn 0.707107 0.707107 -0.000000
vn 0.707107 0.707107 -0.000000
vn 0.866025 0.500000 -0.000000
vn 0.866025 0.500000 -0.000000
vn 0.104528 0.994522 -0.000000
vn 0.104528 0.994522 -0.000000
vn 0.104528 0.994522 -0.000000
vn 0.104528 0.994522 -0.000000
vn 0.104528 0.994522 -0.000000
vn 0.104528 0.994522 -0.000000
vn 0.994522 -0.104528 0.000000
vn 0.994522 -0.104528 0.000000
vn 0.994522 -0.104528 0.000000
vn 0.994522 -0.104528 0.000000
vn 0.039351 -0.999225 0.000000
vn 0.039351 -0.999225 0.000000
vn 0.039351 -0.999225 0.000000
vn 0.039351 -0.999225 0.000000
vn 0.039351 -0.999225 0.000000
vn 0.039351 -0.999225 0.000000
vn -0.000000 -1.000000 0.000000
vn -0.000000 -1.000000 0.000000
vn 0.136855 -0.990591 -0.000000
vn 0.136855 -0.990591 -0.000000
vn 0.271135 -0.962541 -0.000000
vn 0.400313 -0.916379 -0.000000
vn 0.400313 -0.916379 -0.000000
vn 0.271135 -0.962541 -0.000000
vn -0.104528 -0.994522 0.000000
vn -0.104528 -0.994522 0.000000
vn -0.104528 -0.994522 0.000000
vn -0.104528 -0.994522 0.000000
vn -0.104528 -0.994522 0.000000
vn -0.104528 -0.994522 0.000000
vn -0.994522 0.104528 0.000000
vn -0.994522 0.104528 0.000000
vn -0.994522 0.104528 0.000000
vn -0.994522 0.104528 0.000000
vn -0.039351 0.999225 0.000000
vn -0.039351 0.999225 0.000000
vn -0.039351 0.999225 0.000000
vn -0.039351 0.999225 0.000000
vn -0.039351 0.999225 0.000000
vn -0.039351 0.999225 0.000000
vn 0.000000 1.000000 -0.000000
vn 0.000000 1.000000 -0.000000
vn -0.136855 0.990591 -0.000000
vn -0.136855 0.990591 -0.000000
vn -0.271135 0.962541 -0.000000
vn -0.400313 0.916379 -0.000000
vn -0.400313 0.916379 -0.000000
vn -0.271135 0.962541 -0.000000
vn 0.000000 0.000000 1.000000
vn 0.000000 0.000000 1.000000
vn 0.000000 0.000000 1.000000
vn 0.000000 0.000000 1.000000
vn 0.000000 0.000000 1.000000
vn 0.000000 0.000000 1.000000
vn 0.000000 0.000000 1.000000
vn 0.000000 0.000000 1.000000
vn 0.000000 0.000000 1.000000
vn 0.000000 0.000000 1.000000
vn 0.000000 0.000000 1.000000
vn 0.000000 0.000000 1.000000
vn 0.000000 0.000000 1.000000
vn 0.000000 0.000000 1.000000
vn 0.000000 0.000000 1.000000
vn 0.000000 0.000000 1.000000
vn 0.000000 0.000000 1.000000
vn 0.000000 0.000000 1.000000
vn 0.000000 0.000000 1.000000
vn 0.000000 0.000000 1.000000
vn 0.000000 0.000000 1.000000
vn 0.000000 0.000000 1.000000
vn 0.000000 0.000000 1.000000
vn 0.000000 0.000000 1.000000
vn 0.000000 0.000000 1.000000
vn 0.000000 0.000000 1.000000
vn 0.000000 0.000000 1.000000
vn 0.000000 0.000000 1.000000
vn 0.000000 0.000000 1.000000
vn 0.000000 0.000000 1.000000
vn 0.000000 0.000000 1.000000
vn 0.000000 0.000000 1.000000
vn 0.000000 0.000000 1.000000
vn 0.000000 0.000000 1.000000
vn 0.000000 0.000000 1.000000
vn 0.000000 0.000000 1.000000
vn 0.000000 0.000000 1.000000
vn 0.000000 0.000000 1.000000
vn 0.000000 0.000000 1.000000
vn 0.000000 0.000000 1.000000
vn 0.000000 0.000000 1.000000
vn -0.000000 -0.000000 -1.000000
vn -0.000000 -0.000000 -1.000000
vn -0.000000 -0.000000 -1.000000
vn -0.000000 -0.000000 -1.000000
vn -0.000000 -0.000000 -1.000000
vn -0.000000 -0.000000 -1.000000
vn -0.000000 -0.000000 -1.000000
vn -0.000000 -0.000000 -1.000000
vn -0.000000 -0.000000 -1.000000
vn -0.000000 -0.000000 -1.000000
vn -0.000000 -0.000000 -1.000000
vn -0.000000 -0.000000 -1.000000
vn -0.000000 -0.000000 -1.000000
vn -0.000000 -0.000000 -1.000000
vn -0.000000 -0.000000 -1.000000
vn -0.000000 -0.000000 -1.000000
vn -0.000000 -0.000000 -1.000000
vn -0.000000 -0.000000 -1.000000
vn -0.000000 -0.000000 -1.000000
vn -0.000000 -0.000000 -1.000000
vn -0.000000 -0.000000 -1.000000
vn -0.000000 -0.000000 -1.000000
vn -0.000000 -0.000000 -1.000000
vn -0.000000 -0.000000 -1.000000
vn -0.000000 -0.000000 -1.000000
vn -0.000000 -0.000000 -1.000000
vn -0.000000 -0.000000 -1.000000
vn -0.000000 -0.000000 -1.000000
vn -0.000000 -0.000000 -1.000000
vn -0.000000 -0.000000 -1.000000
vn -0.000000 -0.000000 -1.000000
vn -0.000000 -0.000000 -1.000000
vn -0.000000 -0.000000 -1.000000
vn -0.000000 -0.000000 -1.000000
vn -0.000000 -0.000000 -1.000000
vn -0.000000 -0.000000 -1.000000
vn -0.000000 -0.000000 -1.000000
vn -0.000000 -0.000000 -1.000000
vn -0.000000 -0.000000 -1.000000
vn -0.000000 -0.000000 -1.000000
vn -0.000000 -0.000000 -1.000000
usemtl Steel_-_Satin
f 2/1/1 48/2/2 1/3/3
f 1/3/3 48/2/2 25/4/4
f 1/5/3 25/6/4 24/7/5
f 24/7/5 25/6/4 26/8/6
f 24/7/5 26/8/6 23/9/7
f 23/9/7 26/8/6 27/10/8
f 23/9/7 27/10/8 22/11/9
f 22/11/9 27/10/8 28/12/10
f 22/11/9 28/12/10 21/13/11
f 21/13/11 28/12/10 29/14/12
f 21/13/11 29/14/12 20/15/13
f 20/15/13 29/14/12 30/16/14
f 20/15/13 30/16/14 19/17/15
f 19/17/15 30/16/14 31/18/16
f 19/17/15 31/18/16 18/19/17
f 18/19/17 31/18/16 32/20/18
f 18/19/17 32/20/18 17/21/19
f 17/21/19 32/20/18 33/22/20
f 17/21/19 33/22/20 16/23/21
f 16/23/21 33/22/20 34/24/22
f 16/23/21 34/24/22 15/25/23
f 15/25/23 34/24/22 35/26/24
f 15/25/23 35/26/24 14/27/25
f 14/27/25 35/26/24 36/28/26
f 14/27/25 36/28/26 13/29/27
f 13/29/27 36/28/26 37/30/28
f 13/29/27 37/30/28 12/31/29
f 12/31/29 37/30/28 38/32/30
f 12/31/29 38/32/30 11/33/31
f 11/33/31 38/32/30 39/34/32
f 11/33/31 39/34/32 10/35/33
f 10/35/33 39/34/32 40/36/34
f 10/35/33 40/36/34 9/37/35
f 9/37/35 40/36/34 41/38/36
f 9/37/35 41/38/36 8/39/37
f 8/39/37 41/38/36 42/40/38
f 8/39/37 42/40/38 7/41/39
f 7/41/39 42/40/38 43/42/40
f 7/41/39 43/42/40 6/43/41
f 6/43/41 43/42/40 44/44/42
f 6/43/41 44/44/42 5/45/43
f 5/45/43 44/44/42 45/46/44
f 5/45/43 45/46/44 4/47/45
f 4/47/45 45/46/44 46/48/46
f 4/47/45 46/48/46 3/49/47
f 3/49/47 46/48/46 47/50/48
f 3/49/47 47/50/48 2/1/1
f 2/1/1 47/50/48 48/2/2
f 49/51/49 50/52/50 54/53/51
f 54/53/51 50/52/50 53/54/52
f 53/54/52 50/52/50 51/55/53
f 53/54/52 51/55/53 52/56/54
f 55/57/55 49/58/56 56/59/57
f 56/59/57 49/58/56 54/60/58
f 57/61/59 58/62/60 60/63/61
f 60/63/61 58/62/60 59/64/62
f 59/64/62 58/62/60 55/65/63
f 59/64/62 55/65/63 56/66/64
f 66/67/65 61/68/66 65/69/67
f 65/69/67 61/68/66 62/70/68
f 65/69/67 62/70/68 63/71/69
f 57/72/70 60/73/71 63/71/69
f 63/71/69 60/73/71 64/74/72
f 63/71/69 64/74/72 65/69/67
f 67/75/73 68/76/74 70/77/75
f 70/77/75 68/76/74 69/78/76
f 69/78/76 68/76/74 61/79/77
f 69/78/76 61/79/77 66/80/78
f 71/81/79 67/82/80 72/83/81
f 72/83/81 67/82/80 70/84/82
f 73/85/83 74/86/84 76/87/85
f 76/87/85 74/86/84 75/88/86
f 75/88/86 74/86/84 71/89/87
f 75/88/86 71/89/87 72/90/88
f 52/91/89 51/92/90 80/93/91
f 80/93/91 51/92/90 77/94/92
f 80/93/91 77/94/92 78/95/93
f 73/96/94 76/97/95 78/95/93
f 78/95/93 76/97/95 79/98/96
f 78/95/93 79/98/96 80/93/91
f 2/99/97 1/100/98 69/101/99
f 69/101/99 1/100/98 24/102/100
f 69/101/99 24/102/100 75/103/101
f 75/103/101 24/102/100 23/104/102
f 75/103/101 23/104/102 22/105/103
f 75/103/101 22/105/103 76/106/104
f 76/106/104 22/105/103 21/107/105
f 76/106/104 21/107/105 20/108/106
f 20/108/106 19/109/107 76/106/104
f 76/106/104 19/109/107 79/110/108
f 79/110/108 19/109/107 80/111/109
f 80/111/109 19/109/107 52/112/110
f 52/112/110 19/109/107 18/113/111
f 52/112/110 18/113/111 17/114/112
f 52/112/110 17/114/112 53/115/113
f 53/115/113 17/114/112 16/116/114
f 53/115/113 16/116/114 15/117/115
f 15/117/115 14/118/116 53/115/113
f 53/115/113 14/118/116 13/119/117
f 53/115/113 13/119/117 81/120/118
f 81/120/118 13/119/117 12/121/119
f 81/120/118 12/121/119 11/122/120
f 11/122/120 10/123/121 81/120/118
f 81/120/118 10/123/121 60/124/122
f 81/120/118 60/124/122 59/125/123
f 10/123/121 9/126/124 60/124/122
f 60/124/122 9/126/124 8/127/125
f 60/124/122 8/127/125 7/128/126
f 6/129/127 66/130/128 7/128/126
f 7/128/126 66/130/128 65/131/129
f 7/128/126 65/131/129 64/132/130
f 6/129/127 5/133/131 66/130/128
f 66/130/128 5/133/131 69/101/99
f 69/101/99 5/133/131 4/134/132
f 69/101/99 4/134/132 3/135/133
f 3/135/133 2/99/97 69/101/99
f 72/136/134 70/137/135 75/103/101
f 75/103/101 70/137/135 69/101/99
f 64/132/130 60/124/122 7/128/126
f 59/125/123 56/138/136 81/120/118
f 81/120/118 56/138/136 54/139/137
f 81/120/118 54/139/137 53/115/113
f 26/140/138 25/141/139 68/142/140
f 68/142/140 25/141/139 48/143/141
f 68/142/140 48/143/141 47/144/142
f 47/144/142 46/145/143 68/142/140
f 68/142/140 46/145/143 45/146/144
f 68/142/140 45/146/144 61/147/145
f 61/147/145 45/146/144 44/148/146
f 61/147/145 44/148/146 43/149/147
f 42/150/148 57/151/149 43/149/147
f 43/149/147 57/151/149 63/152/150
f 43/149/147 63/152/150 62/153/151
f 42/150/148 41/154/152 57/151/149
f 57/151/149 41/154/152 40/155/153
f 57/151/149 40/155/153 82/156/154
f 82/156/154 40/155/153 39/157/155
f 82/156/154 39/157/155 38/158/156
f 38/158/156 37/159/157 82/156/154
f 82/156/154 37/159/157 50/160/158
f 82/156/154 50/160/158 49/161/159
f 37/159/157 36/162/160 50/160/158
f 50/160/158 36/162/160 35/163/161
f 50/160/158 35/163/161 34/164/162
f 34/164/162 33/165/163 50/160/158
f 50/160/158 33/165/163 51/166/164
f 51/166/164 33/165/163 32/167/165
f 51/166/164 32/167/165 31/168/166
f 30/169/167 73/170/168 31/168/166
f 31/168/166 73/170/168 78/171/169
f 31/168/166 78/171/169 77/172/170
f 30/169/167 29/173/171 73/170/168
f 73/170/168 29/173/171 28/174/172
f 73/170/168 28/174/172 74/175/173
f 74/175/173 28/174/172 27/176/174
f 74/175/173 27/176/174 26/140/138
f 74/175/173 26/140/138 68/142/140
f 77/172/170 51/166/164 31/168/166
f 49/161/159 55/177/175 82/156/154
f 82/156/154 55/177/175 58/178/176
f 82/156/154 58/178/176 57/151/149
f 62/153/151 61/147/145 43/149/147
f 68/142/140 67/179/177 74/175/173
f 74/175/173 67/179/177 71/180/178
# 82 vertices
# 180 texture params
# 178 normals
# 164 facets

# 1 groups
